<svg width="74" height="82" viewBox="0 0 74 82" fill="none" xmlns="http://www.w3.org/2000/svg">
<path fill-rule="evenodd" clip-rule="evenodd" d="M24.6032 72.1513C20.6088 70.5375 18.6719 65.9754 20.2854 61.9819L23.0114 55.2347C24.2282 52.223 27.6685 50.7632 30.6806 51.9802L34.2433 53.4196C37.2555 54.6366 38.7161 58.0766 37.4993 61.0882L34.7733 67.8354C33.1599 71.8291 28.5975 73.7651 24.6032 72.1513Z" fill="#FF52A8"/>
<path fill-rule="evenodd" clip-rule="evenodd" d="M41.7377 30.3139L41.3407 30.1535C38.3268 28.9358 36.8649 25.4952 38.0817 22.4837L41.4472 14.1538C42.7081 11.0329 46.2749 9.52044 49.3981 10.7823C52.5212 12.0441 54.0365 15.6098 52.7756 18.7307L49.4101 27.0607C48.1934 30.0721 44.7514 31.5315 41.7377 30.3139Z" fill="#FF52A8"/>
<path fill-rule="evenodd" clip-rule="evenodd" d="M47.0843 18.997L45.3555 18.2985C35.6799 14.3893 24.6276 19.0816 20.7179 28.7585L14.14 45.0392C13.7246 46.0675 14.2213 47.2379 15.2494 47.6533L48.3492 61.0265C49.3773 61.4419 50.5477 60.945 50.9631 59.9167L57.541 43.636C61.4508 33.9592 56.7598 22.9062 47.0843 18.997L47.0843 18.997Z" fill="#FEEB70"/>
<path fill-rule="evenodd" clip-rule="evenodd" d="M45.4625 71.4294L10.1 57.1419C6.47401 55.677 4.71545 51.5363 6.17988 47.9117L6.38975 47.3922C7.85412 43.7678 11.9954 42.0111 15.6214 43.4761L50.9841 57.7635C54.6102 59.2285 56.3688 63.3692 54.9044 66.9935L54.6946 67.5129C53.2299 71.1374 49.0885 72.8943 45.4626 71.4294L45.4625 71.4294Z" fill="#FEF7CB"/>
</svg>
