<svg width="66" height="66" viewBox="0 0 66 66" fill="none" xmlns="http://www.w3.org/2000/svg">
<path fill-rule="evenodd" clip-rule="evenodd" d="M2.52595e-05 32.5594C2.52595e-05 14.5774 14.5774 6.05196e-05 32.5594 6.05196e-05C50.5415 6.05196e-05 65.1188 14.5774 65.1188 32.5594C65.1188 50.5415 50.5415 65.1188 32.5594 65.1188C14.5774 65.1188 2.52595e-05 50.5415 2.52595e-05 32.5594Z" fill="#FF9BCD" fill-opacity="0.36"/>
<path fill-rule="evenodd" clip-rule="evenodd" d="M44.2552 23.1833H21.0689C20.5048 23.1833 20.046 22.7244 20.046 22.1603C20.046 21.5965 20.5048 21.1377 21.0689 21.1377H44.2552C44.819 21.1377 45.2781 21.5965 45.2781 22.1603C45.2781 22.7244 44.819 23.1833 44.2552 23.1833ZM31.639 33.4127H33.6849C35.1891 33.4127 36.4128 34.6363 36.4128 36.1403C36.4128 37.6446 35.1891 38.8682 33.6849 38.8682V40.573C33.6849 41.1379 33.2268 41.5959 32.6619 41.5959C32.097 41.5959 31.639 41.1379 31.639 40.573V38.8682H29.9343C29.3694 38.8682 28.9113 38.4102 28.9113 37.8453C28.9113 37.2804 29.3694 36.8224 29.9343 36.8224H33.6849C34.0609 36.8224 34.3669 36.5164 34.3669 36.1403C34.3669 35.7643 34.0609 35.4583 33.6849 35.4583H31.639C30.135 35.4583 28.9113 34.2346 28.9113 32.7306C28.9113 31.2266 30.135 30.0029 31.639 30.0029V28.298C31.639 27.7331 32.097 27.275 32.6619 27.275C33.2268 27.275 33.6849 27.7331 33.6849 28.298V30.0029H35.3899C35.9548 30.0029 36.4128 30.4607 36.4128 31.0256C36.4128 31.5908 35.9548 32.0486 35.3899 32.0486H31.639C31.2629 32.0486 30.9572 32.3545 30.9572 32.7306C30.9572 33.1067 31.2629 33.4127 31.639 33.4127H31.639ZM29.5931 18.0688C29.5931 17.5047 30.0522 17.0459 30.6161 17.0459H34.7078C35.2719 17.0459 35.7308 17.5047 35.7308 18.0688V19.0918H29.5931L29.5931 18.0688ZM44.2552 19.0918H37.7766V18.0688C37.7766 16.3765 36.3998 15 34.7078 15H30.616C28.924 15 27.5475 16.3765 27.5475 18.0688V19.0918H21.069C19.3767 19.0918 18.0001 20.4683 18.0001 22.1603C18.0001 23.7373 19.1957 25.0395 20.7278 25.2099V42.6188C20.7278 44.3108 22.1046 45.6877 23.7966 45.6877H29.417L25.256 48.6001C24.793 48.9242 24.6805 49.5622 25.0046 50.0248C25.3241 50.4812 25.9721 50.5962 26.429 50.2764L31.639 46.6294V49.4383C31.639 50.0032 32.097 50.4612 32.6619 50.4612C33.2268 50.4612 33.6849 50.0032 33.6849 49.4383V46.6294L38.8948 50.2764C39.3518 50.5962 40 50.4815 40.3195 50.0248C40.6434 49.5622 40.5308 48.9242 40.0679 48.6001L35.9071 45.6877H41.5272C43.2195 45.6877 44.5961 44.3108 44.5961 42.6188V25.2099C46.1282 25.0395 47.3237 23.7373 47.3237 22.1603C47.3237 20.4683 45.9472 19.0918 44.2552 19.0918Z" fill="#D10263"/>
</svg>
