<svg width="67" height="67" viewBox="0 0 67 67" fill="none" xmlns="http://www.w3.org/2000/svg">
<path fill-rule="evenodd" clip-rule="evenodd" d="M0.978014 33.5414C0.978014 15.5593 15.5553 0.981982 33.5374 0.981982C51.5194 0.981982 66.0968 15.5593 66.0968 33.5414C66.0968 51.5234 51.5194 66.1007 33.5374 66.1007C15.5553 66.1007 0.978014 51.5234 0.978014 33.5414Z" fill="#FFEE9B" fill-opacity="0.36"/>
<path fill-rule="evenodd" clip-rule="evenodd" d="M41.3006 25.1254C41.3006 27.3641 40.4978 29.3019 38.914 30.8859C37.3303 32.4696 35.3922 33.2724 33.1535 33.2724H33.1496C30.9138 33.2717 28.977 32.4688 27.3933 30.8859C25.8093 29.3019 25.0067 27.3641 25.0067 25.1254C25.0067 22.8874 25.8093 20.9494 27.3933 19.3656C28.9762 17.7824 30.913 16.9798 33.1496 16.979H33.1535C35.3915 16.979 37.3295 17.7819 38.914 19.3656C40.4978 20.9494 41.3006 22.8874 41.3006 25.1254Z" fill="#F9C229"/>
<path fill-rule="evenodd" clip-rule="evenodd" d="M47.4774 44.9867C47.4774 46.7529 46.9156 48.1829 45.809 49.236C44.7153 50.2768 43.2689 50.804 41.5101 50.804H25.2232C23.4645 50.804 22.0181 50.2768 20.9252 49.236C19.8178 48.182 19.2568 46.7524 19.2568 44.9867C19.2568 44.3075 19.2792 43.6355 19.3241 42.9893C19.3698 42.3286 19.4622 41.6097 19.5984 40.8512C19.7357 40.0865 19.9123 39.3637 20.1236 38.7031C20.343 38.0192 20.6397 37.3446 21.007 36.6984C21.3884 36.0277 21.8364 35.4435 22.3386 34.9624C22.865 34.459 23.5086 34.0545 24.2526 33.7599C24.994 33.4667 25.816 33.3181 26.6955 33.3181C27.0405 33.3181 27.3747 33.4592 28.0188 33.8788C28.4219 34.1418 28.8864 34.4411 29.3992 34.7689C29.842 35.0512 30.4418 35.316 31.1832 35.5552C31.8348 35.7661 32.4962 35.8837 33.1497 35.9041C33.2217 35.9067 33.2937 35.908 33.3657 35.908C34.0913 35.908 34.8253 35.789 35.5489 35.5552C36.2903 35.316 36.8908 35.0512 37.3334 34.7689C37.8516 34.4378 38.3161 34.1387 38.7133 33.8796C39.3579 33.4592 39.6916 33.3181 40.0374 33.3181C40.9161 33.3181 41.738 33.4667 42.48 33.7599C43.224 34.0546 43.8676 34.4598 44.3935 34.9625C44.8965 35.4435 45.3445 36.0278 45.7257 36.6984C46.0931 37.3451 46.3904 38.0192 46.609 38.7023C46.8206 39.3637 46.9977 40.0866 47.1349 40.8517C47.2704 41.611 47.3631 42.3299 47.4085 42.9888C47.4542 43.6329 47.4766 44.3049 47.4774 44.9867L47.4774 44.9867Z" fill="#F9C229"/>
</svg>
