<svg width="66" height="66" viewBox="0 0 66 66" fill="none" xmlns="http://www.w3.org/2000/svg">
<path fill-rule="evenodd" clip-rule="evenodd" d="M2.52595e-05 32.5594C2.52595e-05 14.5774 14.5774 6.05196e-05 32.5594 6.05196e-05C50.5415 6.05196e-05 65.1188 14.5774 65.1188 32.5594C65.1188 50.5415 50.5415 65.1188 32.5594 65.1188C14.5774 65.1188 2.52595e-05 50.5415 2.52595e-05 32.5594Z" fill="#9BFFF8" fill-opacity="0.36"/>
<path fill-rule="evenodd" clip-rule="evenodd" d="M26.7233 26.8035C25.7094 25.7897 24.0595 25.7897 23.0457 26.8035L22.6894 27.1598C21.7438 28.1054 21.6805 29.6035 22.4981 30.6235L21.6056 33.3863L32.6655 44.4462L35.4283 43.5536C35.9015 43.9331 36.4772 44.1229 37.0531 44.1229C37.719 44.1229 38.385 43.8693 38.8919 43.3627L39.2485 43.0061C40.2623 41.9923 40.2623 40.3424 39.2482 39.3285L26.7233 26.8035Z" fill="#09ACCE"/>
<path fill-rule="evenodd" clip-rule="evenodd" d="M18.1481 44.0876C17.7968 45.1758 18.0809 46.354 18.8893 47.1625C19.8443 47.9975 20.8691 48.2444 21.9642 47.9037L26.5676 46.4164L19.6354 39.4842L18.1481 44.0876Z" fill="#09ACCE"/>
<path fill-rule="evenodd" clip-rule="evenodd" d="M20.2343 37.6312L28.4209 45.8177L30.8125 45.0449L21.0069 35.2393L20.2343 37.6312Z" fill="#09ACCE"/>
<path fill-rule="evenodd" clip-rule="evenodd" d="M34.947 31.5035C35.1689 31.5035 35.3908 31.4189 35.5601 31.2497C36.05 30.7598 36.3547 30.625 36.7406 30.4546C37.2031 30.2501 37.7272 30.0187 38.4462 29.2995C39.1652 28.5805 39.397 28.0564 39.6013 27.5939C40.0027 26.6784 40.6614 26.0199 41.5767 25.6182C42.0392 25.4139 42.5633 25.1824 43.2823 24.4636C43.621 24.1249 43.621 23.576 43.2823 23.2376C42.9439 22.899 42.395 22.899 42.0564 23.2376C41.5664 23.7276 41.2619 23.8622 40.8761 24.0325C40.4136 24.2368 39.8895 24.4684 39.1705 25.1874C38.4515 25.9064 38.2199 26.4308 38.0156 26.8932C37.845 27.2789 37.7104 27.5836 37.2202 28.0738C36.7303 28.5638 36.4256 28.6983 36.0397 28.8689C35.5772 29.0732 35.0531 29.3048 34.3341 30.0238C33.9954 30.3624 33.9954 30.9113 34.3341 31.2497C34.5033 31.4189 34.7253 31.5035 34.947 31.5035L34.947 31.5035Z" fill="#09ACCE"/>
<path fill-rule="evenodd" clip-rule="evenodd" d="M29.7711 25.8168C29.7711 26.2953 30.1592 26.6834 30.638 26.6834C31.1167 26.6834 31.5048 26.2953 31.5048 25.8168C31.5048 25.4676 31.5771 25.341 31.7215 25.0883C31.9093 24.7596 32.1665 24.3093 32.1665 23.4999C32.1665 22.6906 31.9093 22.2403 31.7215 21.9115C31.4324 21.4261 31.4324 20.9405 31.7215 20.4551C31.9093 20.1263 32.1665 19.6763 32.1665 18.8669C32.1665 18.3882 31.7784 18 31.2999 18C30.8212 18 30.433 18.3882 30.433 18.8669C30.433 19.2156 30.3605 19.3424 30.2163 19.5949C30.0283 19.9236 29.7711 20.3739 29.7711 21.1833C29.7711 21.9926 30.0283 22.4429 30.2163 22.7717C30.5052 23.2571 30.5052 23.7427 30.2163 24.2281C30.0283 24.5571 29.7711 25.0074 29.7711 25.8168L29.7711 25.8168Z" fill="#09ACCE"/>
<path fill-rule="evenodd" clip-rule="evenodd" d="M47.1848 34.5472C46.8361 34.5472 46.7094 34.4747 46.4569 34.3303C46.1281 34.1425 45.6778 33.8852 44.8685 33.8852C44.0591 33.8852 43.6088 34.1425 43.2802 34.3303C42.7946 34.6194 42.309 34.6194 41.8234 34.3303C41.4949 34.1425 41.0445 33.8852 40.2352 33.8852C39.7565 33.8852 39.3683 34.2734 39.3683 34.7521C39.3683 35.2308 39.7565 35.6188 40.2352 35.6188C40.5842 35.6188 40.7109 35.6912 40.9634 35.8357C41.2922 36.0234 41.7425 36.2807 42.5519 36.2807C43.3611 36.2807 43.8115 36.0234 44.1402 35.8357C44.6257 35.5466 45.1113 35.5466 45.5966 35.8357C45.9254 36.0234 46.3755 36.2807 47.1848 36.2807C47.6636 36.2807 48.0517 35.8925 48.0517 35.4138C48.0517 34.9351 47.6638 34.5472 47.1848 34.5472H47.1848Z" fill="#09ACCE"/>
<path fill-rule="evenodd" clip-rule="evenodd" d="M35.649 21.9092H37.521C37.9998 21.9092 38.3879 21.521 38.3879 21.0423C38.3879 20.5636 37.9998 20.1754 37.521 20.1754H35.649C35.1703 20.1754 34.7821 20.5636 34.7821 21.0423C34.7821 21.521 35.1703 21.9092 35.649 21.9092Z" fill="#09ACCE"/>
<path fill-rule="evenodd" clip-rule="evenodd" d="M35.1811 26.1214C35.6598 26.1214 36.048 25.7333 36.048 25.2545V24.3184C36.048 23.8397 35.6598 23.4515 35.1811 23.4515C34.7023 23.4515 34.3142 23.8397 34.3142 24.3184V25.2545C34.3142 25.7333 34.7023 26.1214 35.1811 26.1214Z" fill="#09ACCE"/>
<path fill-rule="evenodd" clip-rule="evenodd" d="M45.0095 31.2696C45.4882 31.2696 45.8764 30.8815 45.8764 30.4027V28.5307C45.8764 28.052 45.4882 27.6638 45.0095 27.6638C44.5308 27.6638 44.1426 28.052 44.1426 28.5307V30.4027C44.1426 30.8815 44.5308 31.2696 45.0095 31.2696Z" fill="#09ACCE"/>
<path fill-rule="evenodd" clip-rule="evenodd" d="M40.7972 30.004C40.3185 30.004 39.9305 30.392 39.9305 30.8707C39.9305 31.3494 40.3185 31.7376 40.7972 31.7376H41.7333C42.2121 31.7376 42.6002 31.3494 42.6002 30.8707C42.6002 30.392 42.2121 30.004 41.7333 30.004H40.7972Z" fill="#09ACCE"/>
</svg>
