<svg width="66" height="66" viewBox="0 0 66 66" fill="none" xmlns="http://www.w3.org/2000/svg">
<path fill-rule="evenodd" clip-rule="evenodd" d="M2.14448e-05 32.5594C2.14448e-05 14.5773 14.5774 0 32.5594 0C50.5415 0 65.1188 14.5773 65.1188 32.5594C65.1188 50.5414 50.5415 65.1188 32.5594 65.1188C14.5774 65.1188 2.14448e-05 50.5414 2.14448e-05 32.5594Z" fill="#FFD09B" fill-opacity="0.36"/>
<path fill-rule="evenodd" clip-rule="evenodd" d="M36.2115 40.7414L37.392 36.0189C37.5108 35.5444 37.992 35.2561 38.4658 35.3746C38.9403 35.4931 39.2288 35.9739 39.1101 36.4484L37.9295 41.1709C37.8288 41.5733 37.4679 41.8419 37.0712 41.8419C37 41.8419 36.9276 41.8332 36.8557 41.8152C36.3812 41.6964 36.0927 41.2158 36.2115 40.7414ZM27.8402 41.8152C27.7681 41.8332 27.696 41.8419 27.6248 41.8419C27.228 41.8419 26.8671 41.5733 26.7664 41.1709L25.5859 36.4484C25.4671 35.9739 25.7557 35.4931 26.2301 35.3746C26.7044 35.2561 27.1852 35.5444 27.3039 36.0189L28.4845 40.7414C28.6032 41.2159 28.3147 41.6964 27.8402 41.8152ZM33.2334 36.2337V40.9561C33.2334 41.4451 32.837 41.8416 32.348 41.8416C31.859 41.8416 31.4625 41.4452 31.4625 40.9561V36.2337C31.4625 35.7447 31.859 35.3482 32.348 35.3482H21.098L21.8624 42.9913C21.9987 44.3552 23.1352 45.3833 24.5055 45.3833H40.1901C41.5606 45.3833 42.6971 44.355 42.8334 42.9913L43.5978 35.3482H32.3479C32.8369 35.3482 33.2334 35.7446 33.2334 36.2337H33.2334Z" fill="#EC6C0B"/>
<path fill-rule="evenodd" clip-rule="evenodd" d="M44.4494 27.0837H41.3037L40.0257 21.9722C39.7353 20.811 38.6967 20 37.5 20C36.6925 20 35.9447 20.3649 35.4477 21.0012C34.951 21.6377 34.7784 22.4518 34.9742 23.2349L35.9365 27.0837H28.7594L29.7217 23.2349C29.9175 22.4518 29.7449 21.6377 29.2481 21.0012C28.7512 20.3649 28.0032 20 27.1959 20C25.9992 20 24.9605 20.811 24.6701 21.9722L23.3921 27.0837H20.2465C18.4563 27.0837 16.9998 28.5401 16.9998 30.3305C16.9998 32.1207 18.4563 33.5772 20.2465 33.5772H44.4494C46.2395 33.5772 47.696 32.1207 47.696 30.3305C47.696 28.5401 46.2395 27.0837 44.4494 27.0837H44.4494Z" fill="#EC6C0B"/>
</svg>
