<svg width="66" height="66" viewBox="0 0 66 66" fill="none" xmlns="http://www.w3.org/2000/svg">
<path fill-rule="evenodd" clip-rule="evenodd" d="M2.14448e-05 32.5594C2.14448e-05 14.5773 14.5774 0 32.5594 0C50.5415 0 65.1188 14.5773 65.1188 32.5594C65.1188 50.5414 50.5415 65.1188 32.5594 65.1188C14.5774 65.1188 2.14448e-05 50.5414 2.14448e-05 32.5594Z" fill="#B5FF9B" fill-opacity="0.36"/>
<path fill-rule="evenodd" clip-rule="evenodd" d="M43.5589 35.0083C42.8961 35.6195 42.0348 35.9563 41.1332 35.9563H35.332V36.7817C35.332 38.1469 34.2214 39.2577 32.8562 39.2577H31.7556C30.3904 39.2577 29.2798 38.1469 29.2798 36.7817V35.9563H24.3764C23.634 35.9563 22.9209 35.73 22.3142 35.3019L18.0002 32.2452V39.8078H20.201C22.4764 39.8078 24.3277 41.6591 24.3277 43.9345V45.8603H40.2841V43.9345C40.2841 41.6591 42.1354 39.8078 44.4108 39.8078H46.6116V32.1134L43.5669 35.0005C43.5643 35.0031 43.5614 35.0057 43.5588 35.0083L43.5589 35.0083Z" fill="#1ED102"/>
<path fill-rule="evenodd" clip-rule="evenodd" d="M32.8563 37.6071C33.3112 37.6071 33.6816 37.2368 33.6816 36.7817V33.4803C33.6816 33.0252 33.3112 32.655 32.8563 32.655H31.7557C31.3007 32.655 30.9303 33.0252 30.9303 33.4803V36.7817C30.9303 37.2368 31.3007 37.6071 31.7557 37.6071H32.8563Z" fill="#1ED102"/>
<path fill-rule="evenodd" clip-rule="evenodd" d="M29.0216 26.6025L29.6007 24.4018H35.0109L35.5903 26.6025H29.0216ZM44.1355 26.6025H40.1418L38.836 21.6407C38.5819 20.6747 37.7065 20 36.7077 20H27.9041C26.9053 20 26.0299 20.6747 25.7758 21.6407L24.47 26.6025H20.4763C19.1109 26.6025 18.0002 27.7134 18.0002 29.0786V30.2224L23.2675 33.9542C23.5927 34.1839 23.9767 34.3057 24.3766 34.3057H29.2798V33.4803C29.2798 32.1152 30.3904 31.0043 31.7556 31.0043H32.8562C34.2214 31.0043 35.332 32.1152 35.332 33.4803V34.3057H41.1332C41.617 34.3057 42.0793 34.1258 42.4355 33.7986L46.5939 29.8552C46.5996 29.85 46.6057 29.8454 46.6116 29.8402V29.0786C46.6116 27.7134 45.5009 26.6025 44.1356 26.6025H44.1355Z" fill="#1ED102"/>
<path fill-rule="evenodd" clip-rule="evenodd" d="M41.9348 43.9346V45.8603H44.1356C45.501 45.8603 46.6116 44.7497 46.6116 43.3843V41.4585H44.4109C43.0455 41.4585 41.9348 42.5692 41.9348 43.9346H41.9348Z" fill="#1ED102"/>
<path fill-rule="evenodd" clip-rule="evenodd" d="M20.201 41.4585H18.0003V43.3842C18.0003 44.7497 19.1109 45.8603 20.4763 45.8603H22.6771V43.9346C22.6771 42.5692 21.5664 41.4585 20.201 41.4585Z" fill="#1ED102"/>
</svg>
