<svg width="66" height="66" viewBox="0 0 66 66" fill="none" xmlns="http://www.w3.org/2000/svg">
<path fill-rule="evenodd" clip-rule="evenodd" d="M2.14448e-05 32.5594C2.14448e-05 14.5773 14.5774 0 32.5594 0C50.5415 0 65.1188 14.5773 65.1188 32.5594C65.1188 50.5414 50.5415 65.1188 32.5594 65.1188C14.5774 65.1188 2.14448e-05 50.5414 2.14448e-05 32.5594Z" fill="#F59BFF" fill-opacity="0.36"/>
<path fill-rule="evenodd" clip-rule="evenodd" d="M24.8118 27.65C26.3769 27.65 27.65 26.3769 27.65 24.8118C27.65 23.2467 26.3769 21.9733 24.8118 21.9733C23.2467 21.9733 21.9733 23.2467 21.9733 24.8118C21.9733 26.3769 23.2467 27.65 24.8118 27.65Z" fill="#BF0080"/>
<path fill-rule="evenodd" clip-rule="evenodd" d="M41.3005 38.4623C39.7354 38.4623 38.4623 39.7354 38.4623 41.3005C38.4623 42.8656 39.7354 44.139 41.3005 44.139C42.8656 44.139 44.139 42.8656 44.139 41.3005C44.139 39.7355 42.8656 38.4623 41.3005 38.4623Z" fill="#BF0080"/>
<path fill-rule="evenodd" clip-rule="evenodd" d="M42.2466 30.6233C41.1894 30.6233 40.2882 31.3015 39.9534 32.2452H37.0292C36.9239 31.7283 36.7195 31.2472 36.4374 30.8217L40.3554 26.9038C39.9169 26.5825 39.5298 26.1954 39.2085 25.757L35.2906 29.6749C34.8651 29.3928 34.384 29.1885 33.8671 29.0831V26.1589C34.811 25.8241 35.489 24.9226 35.489 23.8655C35.489 22.5241 34.3975 21.4328 33.0561 21.4328C31.7148 21.4328 30.6233 22.5241 30.6233 23.8655C30.6233 24.9226 31.3013 25.8241 32.2452 26.1589V29.0831C31.7283 29.1885 31.2472 29.3928 30.8219 29.6749L28.4847 27.3379C28.1754 27.7862 27.7863 28.1752 27.3379 28.4847L29.6751 30.8217C29.3928 31.2473 29.1884 31.7283 29.0831 32.2452H26.1589C25.8241 31.3015 24.9228 30.6233 23.8657 30.6233C22.5241 30.6233 21.4328 31.7148 21.4328 33.0562C21.4328 34.3975 22.5241 35.489 23.8657 35.489C24.9228 35.489 25.8241 34.8108 26.1589 33.8671H29.0831C29.1884 34.384 29.3928 34.8651 29.6749 35.2906L25.757 39.2085C26.1954 39.5298 26.5825 39.9169 26.9038 40.3554L30.8217 36.4374C31.2472 36.7195 31.7283 36.9239 32.2452 37.0292V39.9534C31.3013 40.2882 30.6233 41.1897 30.6233 42.2469C30.6233 43.5882 31.7148 44.6794 33.0561 44.6794C34.3975 44.6794 35.489 43.5882 35.489 42.2469C35.489 41.1897 34.811 40.2882 33.8671 39.9534V37.0292C34.384 36.9239 34.8651 36.7195 35.2904 36.4374L37.6276 38.7744C37.9369 38.3261 38.3259 37.9371 38.7744 37.6276L36.4372 35.2906C36.7195 34.8651 36.9238 34.384 37.0291 33.8671H39.9534C40.2882 34.8108 41.1894 35.489 42.2466 35.489C43.5882 35.489 44.6794 34.3975 44.6794 33.0562C44.6794 31.7148 43.5882 30.6233 42.2466 30.6233L42.2466 30.6233Z" fill="#BF0080"/>
<path fill-rule="evenodd" clip-rule="evenodd" d="M22.6492 39.814C20.6369 39.814 19 41.4509 19 43.4632C19 45.4754 20.6369 47.1123 22.6492 47.1123C24.6614 47.1123 26.2983 45.4754 26.2983 43.4632C26.2983 41.4509 24.6614 39.814 22.6492 39.814Z" fill="#BF0080"/>
<path fill-rule="evenodd" clip-rule="evenodd" d="M43.4632 19C41.4509 19 39.814 20.6369 39.814 22.6492C39.814 24.6614 41.4509 26.2983 43.4632 26.2983C45.4754 26.2983 47.1123 24.6614 47.1123 22.6492C47.1123 20.6369 45.4754 19 43.4632 19Z" fill="#BF0080"/>
</svg>
